<svg width="140" height="27" viewBox="0 0 140 27" fill="none" xmlns="http://www.w3.org/2000/svg">
<path d="M9.5 12L18 20.5V2L1 15M1 15L26 7L9.5 25V2L26 25L1 15Z" stroke="#9747FF"/>
<path d="M41.5078 11.6016H38.0859C38.0234 11.1589 37.8958 10.7656 37.7031 10.4219C37.5104 10.0729 37.263 9.77604 36.9609 9.53125C36.6589 9.28646 36.3099 9.09896 35.9141 8.96875C35.5234 8.83854 35.099 8.77344 34.6406 8.77344C33.8125 8.77344 33.0911 8.97917 32.4766 9.39062C31.862 9.79687 31.3854 10.3906 31.0469 11.1719C30.7083 11.9479 30.5391 12.8906 30.5391 14C30.5391 15.1406 30.7083 16.099 31.0469 16.875C31.3906 17.651 31.8698 18.237 32.4844 18.6328C33.099 19.0286 33.8099 19.2266 34.6172 19.2266C35.0703 19.2266 35.4896 19.1667 35.875 19.0469C36.2656 18.9271 36.612 18.7526 36.9141 18.5234C37.2161 18.2891 37.4661 18.0052 37.6641 17.6719C37.8672 17.3385 38.0078 16.9583 38.0859 16.5312L41.5078 16.5469C41.4193 17.2812 41.1979 17.9896 40.8438 18.6719C40.4948 19.349 40.0234 19.9557 39.4297 20.4922C38.8411 21.0234 38.138 21.4453 37.3203 21.7578C36.5078 22.0651 35.5885 22.2187 34.5625 22.2187C33.1354 22.2187 31.8594 21.8958 30.7344 21.25C29.6146 20.6042 28.7292 19.6693 28.0781 18.4453C27.4323 17.2214 27.1094 15.7396 27.1094 14C27.1094 12.2552 27.4375 10.7708 28.0938 9.54688C28.75 8.32292 29.6406 7.39062 30.7656 6.75C31.8906 6.10417 33.1563 5.78125 34.5625 5.78125C35.4896 5.78125 36.349 5.91146 37.1406 6.17187C37.9375 6.43229 38.6432 6.8125 39.2578 7.3125C39.8724 7.80729 40.3724 8.41406 40.7578 9.13281C41.1484 9.85156 41.3984 10.6745 41.5078 11.6016ZM47.1992 6V22H43.8711V6H47.1992ZM49.8652 22V10H53.1934V22H49.8652ZM51.5371 8.45312C51.0423 8.45312 50.6178 8.28906 50.2637 7.96094C49.9147 7.6276 49.7402 7.22917 49.7402 6.76562C49.7402 6.30729 49.9147 5.91406 50.2637 5.58594C50.6178 5.2526 51.0423 5.08594 51.5371 5.08594C52.0319 5.08594 52.4538 5.2526 52.8027 5.58594C53.1569 5.91406 53.334 6.30729 53.334 6.76562C53.334 7.22917 53.1569 7.6276 52.8027 7.96094C52.4538 8.28906 52.0319 8.45312 51.5371 8.45312ZM59.1875 15.0625V22H55.8594V10H59.0313V12.1172H59.1719C59.4375 11.4193 59.8828 10.8672 60.5078 10.4609C61.1328 10.0495 61.8906 9.84375 62.7812 9.84375C63.6146 9.84375 64.3411 10.026 64.9609 10.3906C65.5807 10.7552 66.0625 11.276 66.4063 11.9531C66.75 12.625 66.9219 13.4271 66.9219 14.3594V22H63.5938V14.9531C63.599 14.2187 63.4115 13.6458 63.0313 13.2344C62.651 12.8177 62.1276 12.6094 61.4609 12.6094C61.013 12.6094 60.6172 12.7057 60.2734 12.8984C59.9349 13.0911 59.6693 13.3724 59.4766 13.7422C59.2891 14.1068 59.1927 14.5469 59.1875 15.0625ZM71.1699 26.5C70.748 26.5 70.3522 26.4661 69.9824 26.3984C69.6178 26.3359 69.3158 26.2552 69.0762 26.1562L69.8262 23.6719C70.2168 23.7917 70.5684 23.8568 70.8809 23.8672C71.1986 23.8776 71.472 23.8047 71.7012 23.6484C71.9355 23.4922 72.1257 23.2266 72.2715 22.8516L72.4668 22.3438L68.1621 10H71.6621L74.1465 18.8125H74.2715L76.7793 10H80.3027L75.6387 23.2969C75.4147 23.9427 75.11 24.5052 74.7246 24.9844C74.3444 25.4688 73.8626 25.8411 73.2793 26.1016C72.696 26.3672 71.9928 26.5 71.1699 26.5ZM90.748 10.6016C90.6855 9.97135 90.4173 9.48177 89.9434 9.13281C89.4694 8.78385 88.8262 8.60937 88.0137 8.60937C87.4616 8.60937 86.9954 8.6875 86.6152 8.84375C86.235 8.99479 85.9434 9.20573 85.7402 9.47656C85.5423 9.7474 85.4434 10.0547 85.4434 10.3984C85.4329 10.6849 85.4928 10.9349 85.623 11.1484C85.7585 11.362 85.9434 11.5469 86.1777 11.7031C86.4121 11.8542 86.6829 11.987 86.9902 12.1016C87.2975 12.2109 87.6257 12.3047 87.9746 12.3828L89.4121 12.7266C90.11 12.8828 90.7507 13.0911 91.334 13.3516C91.9173 13.612 92.4225 13.9323 92.8496 14.3125C93.2767 14.6927 93.6074 15.1406 93.8418 15.6562C94.0814 16.1719 94.2038 16.763 94.209 17.4297C94.2038 18.4089 93.9538 19.2578 93.459 19.9766C92.9694 20.6901 92.2611 21.2448 91.334 21.6406C90.4121 22.0312 89.3001 22.2266 87.998 22.2266C86.7064 22.2266 85.5814 22.0286 84.623 21.6328C83.6699 21.237 82.9251 20.651 82.3887 19.875C81.8574 19.0937 81.5788 18.1276 81.5527 16.9766H84.8262C84.8626 17.513 85.0163 17.9609 85.2871 18.3203C85.5632 18.6745 85.9303 18.9427 86.3887 19.125C86.8522 19.3021 87.3757 19.3906 87.959 19.3906C88.5319 19.3906 89.0293 19.3073 89.4512 19.1406C89.8783 18.974 90.209 18.7422 90.4434 18.4453C90.6777 18.1484 90.7949 17.8073 90.7949 17.4219C90.7949 17.0625 90.6882 16.7604 90.4746 16.5156C90.2663 16.2708 89.959 16.0625 89.5527 15.8906C89.1517 15.7187 88.6595 15.5625 88.0762 15.4219L86.334 14.9844C84.985 14.6562 83.9199 14.1432 83.1387 13.4453C82.3574 12.7474 81.9694 11.8073 81.9746 10.625C81.9694 9.65625 82.2272 8.8099 82.748 8.08594C83.2741 7.36198 83.9954 6.79687 84.9121 6.39062C85.8288 5.98437 86.8704 5.78125 88.0371 5.78125C89.2246 5.78125 90.2611 5.98437 91.1465 6.39062C92.0371 6.79687 92.7298 7.36198 93.2246 8.08594C93.7194 8.8099 93.9746 9.64844 93.9902 10.6016H90.748ZM111.188 14C111.188 15.7448 110.857 17.2292 110.195 18.4531C109.539 19.6771 108.643 20.612 107.508 21.2578C106.378 21.8984 105.107 22.2187 103.695 22.2187C102.273 22.2187 100.997 21.8958 99.8672 21.25C98.737 20.6042 97.8438 19.6693 97.1875 18.4453C96.5313 17.2214 96.2031 15.7396 96.2031 14C96.2031 12.2552 96.5313 10.7708 97.1875 9.54688C97.8438 8.32292 98.737 7.39062 99.8672 6.75C100.997 6.10417 102.273 5.78125 103.695 5.78125C105.107 5.78125 106.378 6.10417 107.508 6.75C108.643 7.39062 109.539 8.32292 110.195 9.54688C110.857 10.7708 111.188 12.2552 111.188 14ZM107.758 14C107.758 12.8698 107.589 11.9167 107.25 11.1406C106.917 10.3646 106.445 9.77604 105.836 9.375C105.227 8.97396 104.513 8.77344 103.695 8.77344C102.878 8.77344 102.164 8.97396 101.555 9.375C100.945 9.77604 100.471 10.3646 100.133 11.1406C99.7995 11.9167 99.6328 12.8698 99.6328 14C99.6328 15.1302 99.7995 16.0833 100.133 16.8594C100.471 17.6354 100.945 18.224 101.555 18.625C102.164 19.026 102.878 19.2266 103.695 19.2266C104.513 19.2266 105.227 19.026 105.836 18.625C106.445 18.224 106.917 17.6354 107.25 16.8594C107.589 16.0833 107.758 15.1302 107.758 14ZM113.693 22V6H124.287V8.78906H117.076V12.6016H123.584V15.3906H117.076V22H113.693ZM125.953 8.78906V6H139.094V8.78906H134.195V22H130.852V8.78906H125.953Z" fill="#9747FF"/>
</svg>
